<?xml version="1.0"?>
<svg width="605.25" height="280" xmlns="http://www.w3.org/2000/svg" xmlns:svg="http://www.w3.org/2000/svg" data-name="TNBU">
 <defs>
  <linearGradient id="c07350d9-0c50-4d35-b63a-3c71f5ac29f1-496" x1="0.5" x2="0.5" y1="1" y2="0">
   <stop offset="0" stop-color="gray" stop-opacity="0.25"/>
   <stop offset="0.54" stop-color="gray" stop-opacity="0.12"/>
   <stop offset="1" stop-color="gray" stop-opacity="0.1"/>
  </linearGradient>
 </defs>
 <title>broadcast</title>
<g data-bx-workspace="master" xmlns="http://www.w3.org/2000/svg" data-name="TNBU" width="605.25" height="280" viewBox="0 0 605.25 761.48"><defs><linearGradient id="c07350d9-0c50-4d35-b63a-3c71f5ac29f1-496" x1="304.32" y1="452.8" x2="304.32" y2="148.23" gradientUnits="userSpaceOnUse" gradientTransform="matrix(1, 0, 0, 0.538342, 0, 31.431554)"><stop offset="0" stop-color="gray" stop-opacity="0.25"></stop><stop offset="0.54" stop-color="gray" stop-opacity="0.12"></stop><stop offset="1" stop-color="gray" stop-opacity="0.1"></stop></linearGradient></defs><bx-title>TNBU</bx-title><path d="M 550.14 42.38 C 568.039 56.63 579.424 77.506 581.71 100.27 C 582.055 103.751 585.034 106.371 588.53 106.27 L 598.77 105.97 C 602.632 105.86 605.596 102.506 605.23 98.66 C 599.769 40.938 549.947 -2.326 492.03 0.36 C 488.171 0.539 485.264 3.94 485.69 7.78 L 486.83 17.96 C 487.21 21.423 490.198 24.006 493.68 23.88 C 514.115 23.035 534.167 29.606 550.14 42.38 Z" fill="#6c63ff"></path><path d="M 541.97 52.62 C 526.286 40.065 506.652 33.487 486.57 34.06 C 482.672 34.181 479.71 37.606 480.15 41.48 L 481 49.07 C 481.382 52.487 484.302 55.053 487.74 54.99 C 520.533 54.412 548.481 78.663 552.53 111.21 C 552.937 114.638 555.889 117.191 559.34 117.1 L 566.97 116.88 C 570.86 116.78 573.836 113.379 573.42 109.51 C 570.908 87.123 559.592 66.654 541.97 52.62 Z" fill="#6c63ff"></path><path d="M 510.11 92.54 C 519.325 99.883 525.446 110.418 527.26 122.06 C 527.745 125.429 530.668 127.905 534.07 127.83 L 537.76 127.72 C 541.77 127.597 544.772 123.997 544.17 120.03 C 539.55 88.598 512.619 65.283 480.85 65.21 C 476.903 65.254 473.866 68.71 474.33 72.63 L 474.74 76.31 C 475.144 79.689 478.007 82.234 481.41 82.24 C 491.856 82.384 501.956 86.008 510.11 92.54 Z" fill="#6c63ff"></path><path d="M 55.12 42.38 C 37.221 56.63 25.836 77.506 23.55 100.27 C 23.205 103.751 20.226 106.371 16.73 106.27 L 6.49 105.97 C 2.628 105.86 -0.336 102.506 0.03 98.66 C 5.491 40.938 55.313 -2.326 113.23 0.36 C 117.089 0.539 119.996 3.94 119.57 7.78 L 118.43 17.94 C 118.05 21.403 115.062 23.986 111.58 23.86 C 91.142 23.021 71.09 29.598 55.12 42.38 Z" fill="#6c63ff"></path><path d="M 63.29 52.62 C 78.974 40.065 98.608 33.487 118.69 34.06 C 122.588 34.181 125.55 37.606 125.11 41.48 L 124.26 49.07 C 123.879 52.487 120.958 55.053 117.52 54.99 C 84.727 54.412 56.779 78.663 52.73 111.21 C 52.323 114.638 49.371 117.191 45.92 117.1 L 38.29 116.88 C 34.4 116.78 31.424 113.379 31.84 109.51 C 34.352 87.123 45.668 66.654 63.29 52.62 Z" fill="#6c63ff"></path><path d="M 95.15 92.54 C 85.935 99.883 79.814 110.418 78 122.06 C 77.515 125.429 74.592 127.905 71.19 127.83 L 67.5 127.72 C 63.49 127.597 60.488 123.997 61.09 120.03 C 65.71 88.598 92.641 65.283 124.41 65.21 C 128.357 65.254 131.394 68.71 130.93 72.63 L 130.52 76.31 C 130.116 79.689 127.253 82.234 123.85 82.24 C 113.404 82.384 103.304 86.008 95.15 92.54 Z" fill="#6c63ff"></path><rect x="120.96" y="111.23" width="366.73" height="163.957" rx="44.36" ry="44.36" fill="url(#c07350d9-0c50-4d35-b63a-3c71f5ac29f1-496)" style=""></rect><rect x="125.44" y="113.642" width="358.31" height="159.139" rx="44.36" ry="44.36" fill="#fff" style=""></rect><text style="white-space: pre; fill: rgb(51, 51, 51); font-family: Arial, sans-serif; font-size: 105px;" x="160.092" y="229.953">TNBU</text></g>
</svg>